# xmcd
#
# Track frame offsets:
# 150
# 20852
# 34722
# 59567
# 80885
# 99160
# 109622
# 131892
# 147600
# 162400
# 177395
# 196820
# 223067
# 242255
#
# Disc length: 3470 seconds
#
#
# Revision: 0
# Processed by: cddbd v1.5.2PL0 Copyright (c) Steve Scherf et al.
# Submitted via: FreeRIP 2.951 
#
DISCID=ce0d8c0e
DTITLE=MPB - BRASIL DE SONS E CORES
DYEAR=2002
DGENRE=Pop
TTITLE0=Back In Bahia
TTITLE1=Cajuína
TTITLE2=Noturno
TTITLE3=Correnteza
TTITLE4=Tempo Rei
TTITLE5=Flora
TTITLE6=Avôhai
TTITLE7=Taxi Lunar
TTITLE8=Eu e a Lua
TTITLE9=Mistérios da Meia-Noite
TTITLE10=Palavras de Amor
TTITLE11=Mil e uma Noites de Amor
TTITLE12=Apenas um Rapaz Latino Americano
TTITLE13=Eu Quero Ouvir você Dizer que sou Ruim
EXTD=
EXTT0=
EXTT1=
EXTT2=
EXTT3=
EXTT4=
EXTT5=
EXTT6=
EXTT7=
EXTT8=
EXTT9=
EXTT10=
EXTT11=
EXTT12=
EXTT13=
PLAYORDER=
